Simulation
nRows=24
nColumns=15
endheader
time  TH_x TH_y TH_z SC_y  SC_z  SC_x  AC_y  AC_z  AC_x  GH_y  GH_z  GH_yy  EL_x  PS_y
0.0  0.000000  0.000000  0.000000  -32.22337736139246  0.9483653517706971  36.72123632567321  51.51568352915586  -16.205881860426118  -26.372078865008355  40.13255607550932  -2.9627121336213498  -9.535819563997709  22.372128064781034  0.000000
0.031  0.000000  0.000000  0.000000  -31.81065193350299  0.6463075629895605  35.993365813052066  50.95514325142589  -16.88828696019546  -26.691217773412497  39.983602483805214  -3.4487917340594803  -9.712947409303721  22.368653191112212  0.000000
0.062  0.000000  0.000000  0.000000  -31.312261925526357  0.3109980610957604  35.122450597266905  50.33819202025196  -17.58076586842753  -26.911589515621046  39.77994852731313  -3.689323731590225  -9.929617865332672  22.302905908196216  0.000000
0.093  0.000000  0.000000  0.000000  -30.970959193920667  -0.08531780975297037  34.24335506340145  49.8500181604436  -18.234558356196352  -26.998430634389887  39.53567370250519  -3.67690152105162  -10.139065348648854  22.240604994352623  0.000000
0.124  0.000000  0.000000  0.000000  -30.706890097381724  -0.4692017518433542  33.43455206358739  49.49571493997805  -18.81623553984292  -26.985271598502763  39.262140166819194  -3.479108169186959  -10.323861148221829  22.245337948853013  0.000000
0.155  0.000000  0.000000  0.000000  -30.480046370251262  -0.8091542504463797  32.711133713273085  49.23904774124854  -19.30079553656685  -26.898824234385106  38.95170607582495  -3.1265997354716166  -10.493818436140574  22.275431948394314  0.000000
0.186  0.000000  0.000000  0.000000  -30.285172617825552  -1.1048132034260745  32.09654937725271  49.04666953356972  -19.683077728123788  -26.783160367596114  38.58971839555185  -2.6502524083831176  -10.668064694303062  22.305890556926354  0.000000
0.217  0.000000  0.000000  0.000000  -30.094878413213916  -1.3299884555716799  31.57294021965486  48.900757001842805  -19.973441952854124  -26.64071186426093  38.17216071377879  -2.0618335473622453  -10.849259222704461  22.315890308557723  0.000000
0.248  0.000000  0.000000  0.000000  -29.900500330779323  -1.4798708313602267  31.098769048097747  48.79563901658789  -20.159569490015155  -26.466207463647468  37.696977738612844  -1.3640044680058938  -11.034069660541194  22.30711046438524  0.000000
0.279  0.000000  0.000000  0.000000  -29.715234013807393  -1.5700457309994051  30.70169266187  48.71552931861309  -20.27558236277273  -26.298987525300227  37.16724781371837  -0.5558699260608101  -11.205854518988797  22.269773092484016  0.000000
0.31  0.000000  0.000000  0.000000  -29.571143877277482  -1.6404592773638444  30.392453796293097  48.66592237542584  -20.32875042908282  -26.173629065259515  36.59334380751122  0.369695667490287  -11.33305697242625  22.203089269739785  0.000000
0.34099999999999997  0.000000  0.000000  0.000000  -29.485772562589307  -1.7165255900746483  30.14095662615389  48.66668733271614  -20.30059940133745  -26.063119978677854  35.97469130378224  1.4070970398399325  -11.407937141603309  22.11028888277319  0.000000
0.372  0.000000  0.000000  0.000000  -29.439690576914856  -1.7744370011108745  29.939240877050967  48.73161068275098  -20.20906056752743  -25.920916976290492  35.30800445753075  2.538203791989184  -11.456007908288798  22.01426022843072  0.000000
0.403  0.000000  0.000000  0.000000  -29.41660551934319  -1.787148948088784  29.81610852807001  48.857371419241154  -20.088478101656257  -25.747051458490834  34.611982526887275  3.7509989152013548  -11.499214027775874  21.93311962342566  0.000000
0.434  0.000000  0.000000  0.000000  -29.428969585911677  -1.7600225649661598  29.800305371596174  49.03303136660589  -19.963812979953584  -25.573725997897384  33.907809091488964  5.052115702079796  -11.554876200824575  21.859383809732307  0.000000
0.46499999999999997  0.000000  0.000000  0.000000  -29.4810813791481  -1.7051195454454355  29.901393098982567  49.24649625334406  -19.85018981002028  -25.419661615851215  33.21228833283385  6.446759631713579  -11.638677798715305  21.77818496199494  0.000000
0.496  0.000000  0.000000  0.000000  -29.56494957644758  -1.6287212852619604  30.120435877041402  49.49000971291856  -19.75742904334998  -25.29399855916248  32.53794812517721  7.93126987096344  -11.763472843706055  21.69010007425294  0.000000
0.527  0.000000  0.000000  0.000000  -29.673907453264256  -1.5318507233751575  30.456983746574377  49.756054358294186  -19.688867212944213  -25.2023460662054  31.894183680774283  9.496736380744231  -11.937732622161041  21.59780562063243  0.000000
0.558  0.000000  0.000000  0.000000  -29.806816003894987  -1.4118123135348712  30.912080812753132  50.03778899680071  -19.64897505101848  -25.147947328232824  31.285093548288458  11.134313759731587  -12.166719383434492  21.49990185809275  0.000000
0.589  0.000000  0.000000  0.000000  -29.960846465472812  -1.2719519411130067  31.48512933134449  50.333305157116136  -19.638365586048376  -25.13679846246623  30.712918672980596  12.829598921568683  -12.450804869749906  21.393518111533997  0.000000
0.62  0.000000  0.000000  0.000000  -30.12761336749607  -1.1180779758928252  32.17028061792775  50.63447119864538  -19.65390601209591  -25.17055218324596  30.17921115655577  14.558002937413086  -12.783872275799759  21.280210724697476  0.000000
0.651  0.000000  0.000000  0.000000  -30.3018099238575  -0.9526243390663162  32.939256648740034  50.93353918600875  -19.674490406550934  -25.233017588609673  29.68844246538758  16.294824221767012  -13.154401921265759  21.166407687260484  0.000000
0.6819999999999999  0.000000  0.000000  0.000000  -30.474041348319993  -0.7778275849204618  33.76063407322596  51.23541909735679  -19.678947741773776  -25.312074703833144  29.236876519047673  18.030949889563043  -13.555232911794162  21.055463019337058  0.000000
0.713  0.000000  0.000000  0.000000  -30.644567696206032  -0.594950914201376  34.6233518169722  51.54100348040242  -19.659983452991348  -25.40457877710096  28.815946618725874  19.764532271569365  -13.978123973974341  20.944760948520546  0.000000
